<svg xmlns="http://www.w3.org/2000/svg" viewBox="0 0 4447.95 1119.89"><defs><style>.cls-1{fill:#654ff0;}.cls-2{fill:#fff;}.cls-3{fill:#6ad7e5;}.cls-4,.cls-6,.cls-8{fill:none;stroke-linecap:round;stroke-linejoin:round;}.cls-4,.cls-8{stroke:#000;}.cls-4,.cls-6{stroke-width:6px;}.cls-5{fill:#f6d2a2;}.cls-6{stroke:#231f20;}.cls-7{fill:#c6b198;}.cls-8{stroke-width:3px;}.cls-9{fill:#21a366;}.cls-10{fill:#107c41;}.cls-11{fill:#33c481;}.cls-12{fill:#185c37;}.cls-13{fill:#165634;}.cls-14{fill:#13452b;}.cls-15{fill:#53cad7;}.cls-16{fill:#5e5e5e;}</style></defs><g id="Layer_2" data-name="Layer 2"><g id="Layer_1-2" data-name="Layer 1"><path class="cls-1" d="M961.61,530.51l.26.93a20.63,20.63,0,0,1-39.76,11h0l-.26-.93L855.1,560.09l48.15,173.37,173.36-48.16-48.15-173.36Z"/><path class="cls-2" d="M921.32,642.33l11.49-3.19,19.44,39.6.15,0-2.18-44.4,10.75-3,20.26,39.92.16,0-2.8-44.78,11.27-3.13,2.41,65.45-11.41,3.17-20-39.43-.23.06,2.57,44.29-11.62,3.23Zm81.49-22.63,18.12-5,35,56.38-11.85,3.29-7.71-12.57-20.63,5.73.77,14.5L1005,685.21Zm11.1,13.21,1.24,23.91,15.6-4.33-12-20.92Z"/><g id="Graphic_2" data-name="Graphic 2"><path class="cls-3" d="M772.34,48.12c85-76.64,187,60.54,83.4,110.78Z"/></g><g id="Graphic_3" data-name="Graphic 3"><path class="cls-4" d="M772.34,48.12c85-76.64,187,60.54,83.4,110.78Z"/></g><g id="Graphic_4" data-name="Graphic 4"><path class="cls-3" d="M261.67,194.21C145.26,154.6,241.2,9,332.77,75.94Z"/></g><g id="Graphic_5" data-name="Graphic 5"><path class="cls-4" d="M261.67,194.21C145.26,154.6,241.2,9,332.77,75.94Z"/></g><g id="Graphic_6" data-name="Graphic 6"><path d="M840,116c13.57-11.28,22.43-24.64,9.37-40.33-12.12-14.54-27.82-9.37-41.41,2Z"/></g><g id="Graphic_7" data-name="Graphic 7"><path d="M275.24,153.21c-15.17-9.06-26-20.89-15.46-38.42,9.73-16.22,26-13.5,41.19-4.44Z"/></g><g id="Graphic_8" data-name="Graphic 8"><path class="cls-3" d="M555.67,3.15C674.12,1.22,785.48,16.34,845.21,129.23c54,126.7,37.8,264.6,47.9,399.31,8.68,115.67,25.95,249.2-26,357.33-54.64,113.78-195.41,144.5-311.81,142.21C463.86,1026.27,353,998.25,300.1,915.67c-62.08-96.94-35.77-243-33.21-352,3.13-129.21-39.12-258,1.24-385,41.81-131.75,160-163.3,287.54-175.5"/></g><g id="Graphic_9" data-name="Graphic 9"><path class="cls-4" d="M555.67,3.15C674.12,1.22,785.48,16.34,845.21,129.23c54,126.7,37.8,264.6,47.9,399.31,8.68,115.67,25.95,249.2-26,357.33-54.64,113.78-195.41,144.5-311.81,142.21C463.86,1026.27,353,998.25,300.1,915.67c-62.08-96.94-35.77-243-33.21-352,3.13-129.21-39.12-258,1.24-385,41.81-131.75,160-163.3,287.54-175.5"/></g><g id="Graphic_10" data-name="Graphic 10"><path class="cls-5" d="M526.09,250.9c-23.66,2.4-42.5,30.87-29.85,52.93C513,333,548.87,300.34,571.58,303c26.07.08,47.86,26.82,68.42,3.8,22.86-25.61-10.86-49.65-37.06-60.21Z"/></g><g id="Graphic_11" data-name="Graphic 11"><path class="cls-6" d="M526.09,250.9c-23.66,2.4-42.5,30.87-29.85,52.93C513,333,548.87,300.34,571.58,303c26.07.08,47.86,26.82,68.42,3.8,22.86-25.61-10.86-49.65-37.06-60.21Z"/></g><g id="Graphic_12" data-name="Graphic 12"><path d="M523.08,249.78c-2.44-40.94,75.67-47.33,85.45-13.22s-81.11,43.51-85.45,13.22Z"/></g><g id="Graphic_13" data-name="Graphic 13"><path class="cls-2" d="M606.27,308.47c.32,16.07,4.18,34,1.47,51.24-4,7.83-12,8.8-18.93,12A28.2,28.2,0,0,1,567,355.31c-2.79-19.49.33-38.46.59-57.94Z"/></g><g id="Graphic_14" data-name="Graphic 14"><path class="cls-4" d="M606.27,308.47c.32,16.07,4.18,34,1.47,51.24-4,7.83-12,8.8-18.93,12A28.2,28.2,0,0,1,567,355.31c-2.79-19.49.33-38.46.59-57.94Z"/></g><g id="Graphic_15" data-name="Graphic 15"><path class="cls-2" d="M337.93,186.61c29.35,107.18,201.24,76.86,193-31.05C521,26.38,309.39,54.8,337.93,186.61"/></g><g id="Graphic_16" data-name="Graphic 16"><path class="cls-4" d="M337.93,186.61c29.35,107.18,201.24,76.86,193-31.05C521,26.38,309.39,54.8,337.93,186.61"/></g><g id="Graphic_17" data-name="Graphic 17"><path class="cls-2" d="M579.12,162.7C602.38,286,804,250,772.93,125.81,745.07,14.35,570.17,48.17,579.12,162.7"/></g><g id="Graphic_18" data-name="Graphic 18"><path class="cls-4" d="M579.12,162.7C602.38,286,804,250,772.93,125.81,745.07,14.35,570.17,48.17,579.12,162.7"/></g><g id="Graphic_19" data-name="Graphic 19"><path class="cls-7" d="M951.3,557.75c-4.53-1.62-9.32-2.73-12.45-6.72"/></g><g id="Graphic_20" data-name="Graphic 20"><path class="cls-4" d="M951.3,557.75c-4.53-1.62-9.32-2.73-12.45-6.72"/></g><g id="Graphic_21" data-name="Graphic 21"><path class="cls-2" d="M522.76,310.27c-12.18,31,8.59,92.2,42.29,46.21-2.79-19.48.33-38.45.59-57.94Z"/></g><g id="Graphic_22" data-name="Graphic 22"><path class="cls-4" d="M522.76,310.27c-12.18,31,8.59,92.2,42.29,46.21-2.79-19.48.33-38.45.59-57.94Z"/></g><g id="Graphic_23" data-name="Graphic 23"><path class="cls-5" d="M958.78,544.49c-1,30.91-32.13,17.14-46.28,7.67-13.42-8.94-17.18-1.29-18.61-19.32-.94-11.88-2.52-23.76-2-35.73,20-2.16,42,2.29,58.6,14,8.56,6,24.74,25.44,8.31,33.42"/></g><g id="Graphic_24" data-name="Graphic 24"><path class="cls-4" d="M958.78,544.49c-1,30.91-32.13,17.14-46.28,7.67-13.42-8.94-17.18-1.29-18.61-19.32-.94-11.88-2.52-23.76-2-35.73,20-2.16,42,2.29,58.6,14,8.56,6,24.74,25.44,8.31,33.42"/></g><g id="Graphic_25" data-name="Graphic 25"><path class="cls-4" d="M858.27,1024.57c-5.47-10.44-7.45-22.7-16.39-31"/></g><g id="Graphic_26" data-name="Graphic 26"><path class="cls-5" d="M825.37,944.29c24,14.32,68.25,58.14,32.9,80.28-33.79,32-54-33.59-84.3-42.25C786.7,964.52,802.85,948.23,825.37,944.29Z"/></g><g id="Graphic_27" data-name="Graphic 27"><path class="cls-4" d="M825.37,944.29c24,14.32,68.25,58.14,32.9,80.28-33.79,32-54-33.59-84.3-42.25C786.7,964.52,802.85,948.23,825.37,944.29Z"/></g><g id="Graphic_28" data-name="Graphic 28"><path d="M703.32,170c11.4,12.1,11.67,32.07.73,44.6s-29.13,12.78-40.45.63-11.68-32.07-.73-44.6S692,157.85,703.32,170"/></g><g id="Graphic_29" data-name="Graphic 29"><path class="cls-2" d="M692.54,199.27a9.14,9.14,0,0,1,.21,11.35,6,6,0,0,1-9.56.13A9.14,9.14,0,0,1,683,199.4a6,6,0,0,1,9.56-.13"/></g><g id="Graphic_30" data-name="Graphic 30"><path d="M450.11,186.56c11.54,12.14,11.88,32.12.74,44.6a27.59,27.59,0,0,1-41.18.68c-11.54-12.14-11.88-32.12-.73-44.6a27.58,27.58,0,0,1,41.17-.68"/></g><g id="Graphic_31" data-name="Graphic 31"><path class="cls-2" d="M439,219.74a9.11,9.11,0,0,1,.2,11.35,6.22,6.22,0,0,1-9.7.16,9.11,9.11,0,0,1-.21-11.35,6.15,6.15,0,0,1,9.71-.16"/></g><g id="Graphic_32" data-name="Graphic 32"><path class="cls-7" d="M202,573.86c4.46-1.74,9.22-3,12.18-7.12"/></g><g id="Graphic_33" data-name="Graphic 33"><path class="cls-8" d="M202,573.86c4.46-1.74,9.22-3,12.18-7.12"/></g><g id="Graphic_34" data-name="Graphic 34"><path class="cls-5" d="M201.42,573.74c2,30.89,32.66,16.11,46.48,6.17,13.13-9.39,17.13-1.85,18-19.92.55-11.89,1.76-23.83.91-35.76-20.13-1.48-41.86,3.64-58.13,15.86-8.36,6.31-23.93,26.22-7.25,33.65"/></g><g id="Graphic_35" data-name="Graphic 35"><path class="cls-4" d="M201.42,573.74c2,30.89,32.66,16.11,46.48,6.17,13.13-9.39,17.13-1.85,18-19.92.55-11.89,1.76-23.83.91-35.76-20.13-1.48-41.86,3.64-58.13,15.86-8.36,6.31-23.93,26.22-7.25,33.65"/></g><g id="Group_93" data-name="Group 93"><g id="Graphic_36" data-name="Graphic 36"><path class="cls-9" d="M380.76,571.4h-203c-14.05,0-25.41,11.69-25.41,26.14v111L380.76,845.67,495,895.29l114.21-49.62V708.56Z"/></g><g id="Graphic_37" data-name="Graphic 37"><rect class="cls-10" x="152.3" y="708.51" width="228.46" height="137.11"/></g><g id="Graphic_38" data-name="Graphic 38"><path class="cls-11" d="M583.87,571.4H380.81V708.51H609.27v-111A26.7,26.7,0,0,0,601.84,579,24.68,24.68,0,0,0,583.87,571.4Z"/></g><g id="Graphic_39" data-name="Graphic 39"><path class="cls-12" d="M380.76,845.62H152.3v248.13c0,14.45,11.36,26.14,25.41,26.14H583.87c14,0,25.4-11.69,25.4-26.14v-111Z"/></g><g id="Graphic_40" data-name="Graphic 40"><rect class="cls-10" x="380.76" y="845.62" width="228.46" height="137.11"/></g><g id="Graphic_41" data-name="Graphic 41"><path class="cls-13" d="M298.26,701.44h-146v333h146c14-.06,25.35-11.69,25.4-26.14V727.58C323.61,713.13,312.3,701.5,298.26,701.44Z"/></g><g id="Graphic_42" data-name="Graphic 42"><path class="cls-14" d="M279.26,688.91h-127v333H279.21c14,0,25.35-11.69,25.4-26.14V715C304.56,700.59,293.25,689,279.26,688.91Z"/></g><g id="Graphic_43" data-name="Graphic 43"><path class="cls-10" d="M25.4,688.91H279.26c14,0,25.4,11.68,25.4,26.13v261.2c0,14.45-11.36,26.14-25.4,26.14H25.4a25.23,25.23,0,0,1-18-7.65A26.53,26.53,0,0,1,0,976.24V715C0,700.59,11.36,688.91,25.4,688.91Z"/></g><g id="Graphic_44" data-name="Graphic 44"><path class="cls-2" d="M72,933.91,124,851l-47.65-82.5h38.31l26,52.7c2.37,5,4,8.71,4.95,11.21H146c1.7-4,3.51-7.86,5.37-11.63l27.77-52.28h35.21l-48.89,82,50.13,83.41H178.17l-30-57.91a47.14,47.14,0,0,1-3.56-7.7h-.46a39.77,39.77,0,0,1-3.46,7.49l-30.93,58.12Z"/></g></g><path class="cls-15" d="M1503,378.74H1376.22V410.5A31.79,31.79,0,0,0,1408,442h31.77q31.47,0,31.47-31.47H1503q-7.43,63.24-63.23,63.24h-63.53q-26,0-44.61-18.63T1313,410.5v-95q0-26.26,18.7-44.9T1376.22,252h63.53q26,0,44.6,18.78T1503,315.5ZM1376.22,347h63.53V315.5a31.77,31.77,0,0,0-63.53,0Z"/><path class="cls-15" d="M1566.21,473.74v-47.5q0-28.07,15.88-43.79T1629.45,363q-31.47-3.71-47.36-19.59t-15.88-43.94V252h63.24V315.5a30.13,30.13,0,0,0,9.35,22.19,31.61,31.61,0,0,0,44.75,0A30,30,0,0,0,1693,315.5V252h63.23v47.5q0,28-15.81,43.94T1693,363q31.62,3.72,47.42,19.52t15.81,43.72v47.5H1693V410.5a31.77,31.77,0,0,0-63.53,0v63.24Z"/><path class="cls-15" d="M1977.68,315.5h-31.47q-3.72-31.75-31.77-31.76a31.92,31.92,0,0,0-31.76,31.76v95A31.79,31.79,0,0,0,1914.44,442q28.07,0,31.77-31.47h31.47q-3.87,63.24-63.24,63.24h-31.76q-26,0-44.61-18.63t-18.63-44.61v-95q0-26.26,18.71-44.9T1882.68,252h31.76Q1974.11,252,1977.68,315.5Z"/><path class="cls-15" d="M2231.21,378.74H2104.44V410.5A31.81,31.81,0,0,0,2136.21,442H2168q31.47,0,31.47-31.47h31.77q-7.42,63.24-63.24,63.24h-63.53q-26,0-44.6-18.63t-18.63-44.61v-95q0-26.26,18.7-44.9T2104.44,252H2168q26,0,44.61,18.78t18.63,44.75ZM2104.44,347H2168V315.5a31.77,31.77,0,0,0-63.53,0Z"/><path class="cls-15" d="M2294.44,473.74v-285h63.23v285Z"/><path class="cls-15" d="M2421.2,220.5V188.74h63.23V220.5Zm0,253.24V252h63.23V473.74Z"/><path class="cls-15" d="M2548,252h190v31.77L2611.2,442H2738v31.77H2548V442l126.77-158.23H2548Z"/><path class="cls-15" d="M2991.19,378.74H2864.43V410.5A31.81,31.81,0,0,0,2896.19,442H2928q31.47,0,31.47-31.47h31.76q-7.43,63.24-63.23,63.24h-63.53q-26,0-44.61-18.63t-18.63-44.61v-95q0-26.26,18.71-44.9T2864.43,252H2928q26,0,44.61,18.78t18.62,44.75ZM2864.43,347H2928V315.5a31.77,31.77,0,0,0-63.53,0Z"/><path class="cls-15" d="M3054.43,378.74V347h158.23v31.77Z"/><path class="cls-15" d="M3276.19,252h63.23V442h31.77A31.79,31.79,0,0,0,3403,410.5V252h63.24V442H3498a31.79,31.79,0,0,0,31.47-31.47V252H3593V365.53q0,44.24-31.84,76.22t-76.37,32H3403v-10.1q-18.25,10.1-45,10.1h-81.79Z"/><path class="cls-15" d="M3783,347V315.5a32,32,0,0,0-31.76-31.76h-31.77q-28.05,0-31.47,31.76h-31.76q7.28-63.53,63.23-63.53H3783q26,0,44.61,18.78t18.63,44.75V473.74H3783V442q-3.7,31.77-31.76,31.77h-31.77q-26,0-44.6-18.63t-18.63-44.61v-.3q0-26,18.7-44.6T3719.42,347Zm0,31.77h-31.76a30.73,30.73,0,0,0-22.42,9.27,30.2,30.2,0,0,0-9.35,22.19v.3a31.77,31.77,0,0,0,63.53,0Z"/><path class="cls-15" d="M4067.65,315.5h-31.46q-4.17-31.75-30-31.76-16.77,0-25.23,6.6T3972.51,310q0,13.67,46.16,38.3,37.54,20.19,43.27,33.47a70.8,70.8,0,0,1,5.71,28.28q0,26.42-18.62,45.05t-44.61,18.63h-31.77q-63.22,0-63.23-63.24h31.77q3.7,31.62,29.68,31.62,16.77,0,25.24-6.68t8.46-19.74q0-13.36-46-38.3-37.7-20-43.42-33.4a70.9,70.9,0,0,1-5.71-28.2q0-26.57,18.7-45.2T3972.65,252h31.77Q4063.79,252,4067.65,315.5Z"/><path class="cls-15" d="M4321.18,473.74H4258V315.5a31.77,31.77,0,0,0-63.53,0V473.74h-63.24V252h63.24v31.77q1.92-16,9.87-23.9t21.89-7.87H4258q32.21,0,47.5,22.41a46.35,46.35,0,0,1,19.29-16.84Q4336.62,252,4353,252h31.47q26,0,44.75,18.63T4448,315.5V473.74h-63.53V315.5a30.67,30.67,0,0,0-9.35-22.34,30.15,30.15,0,0,0-22.12-9.42,31.92,31.92,0,0,0-31.77,31.76Z"/><path class="cls-16" d="M1342.74,802.12,1331.54,836h-14.4l36.64-107.84h16.8L1407.38,836H1392.5L1381,802.12Zm35.36-10.88-10.56-31c-2.4-7-4-13.44-5.6-19.68h-.32c-1.6,6.4-3.36,13-5.44,19.52l-10.56,31.2Z"/><path class="cls-16" d="M1469,836,1441.61,728.2h14.73l12.8,54.56c3.2,13.44,6.08,26.88,8,37.28h.32c1.76-10.72,5.12-23.52,8.8-37.44l14.4-54.4h14.56l13.12,54.72c3,12.8,5.92,25.6,7.52,37h.32c2.24-11.84,5.28-23.84,8.64-37.28l14.24-54.4h14.24L1542.74,836h-14.56l-13.6-56.16a324.71,324.71,0,0,1-7-35.2h-.32a336.91,336.91,0,0,1-8.32,35.2L1483.54,836Z"/><path class="cls-16" d="M1588.82,799.88c.32,19,12.48,26.88,26.56,26.88,10.08,0,16.16-1.76,21.44-4l2.4,10.08c-5,2.24-13.44,4.8-25.76,4.8-23.84,0-38.08-15.68-38.08-39s13.76-41.76,36.32-41.76c25.28,0,32,22.24,32,36.48a53.11,53.11,0,0,1-.48,6.56Zm41.28-10.08c.16-9-3.68-22.88-19.52-22.88-14.24,0-20.48,13.12-21.6,22.88Z"/><path class="cls-16" d="M1660.49,836c.32-5.28.64-13.12.64-20v-93.6h13.92v48.64h.32c5-8.64,13.92-14.24,26.41-14.24,19.2,0,32.8,16,32.64,39.52,0,27.68-17.44,41.44-34.73,41.44-11.2,0-20.16-4.32-25.92-14.56h-.48l-.64,12.8Zm14.56-31a26.36,26.36,0,0,0,.64,5.12c2.72,9.76,10.88,16.48,21.12,16.48,14.73,0,23.53-12,23.53-29.76,0-15.52-8-28.8-23-28.8-9.61,0-18.57,6.56-21.45,17.28a27.75,27.75,0,0,0-.8,5.76Z"/><path class="cls-16" d="M1770.09,802.12,1758.89,836h-14.4l36.64-107.84h16.8L1834.73,836h-14.88l-11.52-33.92Zm35.36-10.88-10.56-31c-2.4-7-4-13.44-5.6-19.68H1789c-1.6,6.4-3.36,13-5.44,19.52L1773,791.24Z"/><path class="cls-16" d="M1847.21,821.64a36.9,36.9,0,0,0,18.56,5.6c10.24,0,15-5.12,15-11.52,0-6.72-4-10.4-14.4-14.24-13.92-5-20.48-12.64-20.48-21.92,0-12.48,10.08-22.72,26.72-22.72a38.65,38.65,0,0,1,19,4.8l-3.52,10.24a30.14,30.14,0,0,0-15.84-4.48c-8.32,0-13,4.8-13,10.56,0,6.4,4.64,9.28,14.72,13.12,13.44,5.12,20.32,11.84,20.32,23.36,0,13.6-10.56,23.2-29,23.2-8.48,0-16.32-2.08-21.76-5.28Z"/><path class="cls-16" d="M1910.57,821.64a36.9,36.9,0,0,0,18.56,5.6c10.24,0,15-5.12,15-11.52,0-6.72-4-10.4-14.4-14.24-13.92-5-20.48-12.64-20.48-21.92,0-12.48,10.08-22.72,26.72-22.72a38.65,38.65,0,0,1,19,4.8l-3.52,10.24a30.14,30.14,0,0,0-15.84-4.48c-8.32,0-13,4.8-13,10.56,0,6.4,4.64,9.28,14.72,13.12,13.44,5.12,20.32,11.84,20.32,23.36,0,13.6-10.56,23.2-29,23.2-8.48,0-16.32-2.08-21.76-5.28Z"/><path class="cls-16" d="M1983.69,799.88c.32,19,12.48,26.88,26.56,26.88,10.08,0,16.16-1.76,21.44-4l2.4,10.08c-5,2.24-13.44,4.8-25.76,4.8-23.84,0-38.08-15.68-38.08-39s13.76-41.76,36.32-41.76c25.28,0,32,22.24,32,36.48a53.11,53.11,0,0,1-.48,6.56ZM2025,789.8c.16-9-3.68-22.88-19.52-22.88-14.24,0-20.48,13.12-21.6,22.88Z"/><path class="cls-16" d="M2056,779.56c0-8-.16-14.56-.64-21h12.32l.64,12.48h.48c4.32-7.36,11.52-14.24,24.32-14.24,10.56,0,18.56,6.4,21.92,15.52h.32a31.9,31.9,0,0,1,8.64-10.08c4.64-3.52,9.76-5.44,17.12-5.44,10.24,0,25.44,6.72,25.44,33.6V836h-13.76V792.2c0-14.88-5.44-23.84-16.8-23.84-8,0-14.24,5.92-16.64,12.8a23.19,23.19,0,0,0-1.12,7V836h-13.76v-46.4c0-12.32-5.44-21.28-16.16-21.28-8.8,0-15.2,7-17.44,14.08a19.41,19.41,0,0,0-1.12,6.88V836H2056Z"/><path class="cls-16" d="M2188.81,836c.32-5.28.64-13.12.64-20v-93.6h13.92v48.64h.32c5-8.64,13.92-14.24,26.4-14.24,19.2,0,32.8,16,32.64,39.52,0,27.68-17.44,41.44-34.72,41.44-11.2,0-20.16-4.32-25.92-14.56h-.48L2201,836Zm14.56-31a26.36,26.36,0,0,0,.64,5.12c2.72,9.76,10.88,16.48,21.12,16.48,14.72,0,23.52-12,23.52-29.76,0-15.52-8-28.8-23-28.8-9.6,0-18.56,6.56-21.44,17.28a27.75,27.75,0,0,0-.8,5.76Z"/><path class="cls-16" d="M2280.49,722.44h14.08V836h-14.08Z"/><path class="cls-16" d="M2323.37,758.6l17,45.76c1.76,5.12,3.68,11.2,5,15.84h.32c1.44-4.64,3-10.56,5-16.16l15.36-45.44h14.88l-21.12,55.2c-10.08,26.56-17,40.16-26.56,48.48-6.88,6.08-13.76,8.48-17.28,9.12l-3.52-11.84a37.24,37.24,0,0,0,12.32-6.88A42.69,42.69,0,0,0,2336.49,837a10.11,10.11,0,0,0,1.12-3.36,12.28,12.28,0,0,0-1-3.68L2308,758.6Z"/><path class="cls-16" d="M2426.88,836c.32-5.28.64-13.12.64-20v-93.6h13.92v48.64h.32c5-8.64,13.92-14.24,26.4-14.24,19.2,0,32.81,16,32.65,39.52,0,27.68-17.45,41.44-34.73,41.44-11.2,0-20.16-4.32-25.92-14.56h-.48L2439,836Zm14.56-31a26.36,26.36,0,0,0,.64,5.12c2.72,9.76,10.88,16.48,21.12,16.48,14.72,0,23.53-12,23.53-29.76,0-15.52-8-28.8-23.05-28.8-9.6,0-18.56,6.56-21.44,17.28a27.75,27.75,0,0,0-.8,5.76Z"/><path class="cls-16" d="M2583.36,814.92c0,8,.16,15,.64,21.12h-12.48l-.8-12.64h-.32a29.14,29.14,0,0,1-25.6,14.4c-12.16,0-26.72-6.72-26.72-33.92V758.6h14.08v42.88c0,14.72,4.48,24.64,17.28,24.64,9.44,0,16-6.56,18.56-12.8a20.59,20.59,0,0,0,1.28-7.2V758.6h14.08Z"/><path class="cls-16" d="M2622.4,736.84c.16,4.8-3.36,8.64-9,8.64a8.37,8.37,0,0,1-8.48-8.64,8.58,8.58,0,0,1,8.8-8.8C2619,728,2622.4,731.88,2622.4,736.84ZM2606.72,836V758.6h14.08V836Z"/><path class="cls-16" d="M2644.16,722.44h14.08V836h-14.08Z"/><path class="cls-16" d="M2748.8,722.44V816c0,6.88.16,14.72.64,20H2736.8l-.64-13.44h-.32c-4.32,8.64-13.76,15.2-26.4,15.2-18.72,0-33.12-15.84-33.12-39.36-.16-25.76,15.84-41.6,34.72-41.6,11.84,0,19.84,5.6,23.36,11.84h.32V722.44Zm-14.08,67.68a24.85,24.85,0,0,0-.64-5.92,20.71,20.71,0,0,0-20.32-16.32c-14.56,0-23.2,12.8-23.2,29.92,0,15.68,7.68,28.64,22.88,28.64,9.44,0,18.08-6.24,20.64-16.8a24.46,24.46,0,0,0,.64-6.08Z"/><path class="cls-16" d="M2876.16,796.68c0,28.64-19.84,41.12-38.56,41.12-21,0-37.12-15.36-37.12-39.84,0-25.92,17-41.12,38.4-41.12C2861.12,756.84,2876.16,773,2876.16,796.68Zm-61.44.8c0,17,9.76,29.76,23.52,29.76,13.44,0,23.52-12.64,23.52-30.08,0-13.12-6.56-29.76-23.2-29.76S2814.72,782.76,2814.72,797.48Z"/><path class="cls-16" d="M2895.36,836V769.32h-10.88V758.6h10.88v-3.68c0-10.88,2.4-20.8,9-27a26.94,26.94,0,0,1,18.88-7.2,32.65,32.65,0,0,1,12,2.24l-1.92,10.88a21,21,0,0,0-9-1.76c-12,0-15,10.56-15,22.4v4.16H2928v10.72h-18.72V836Z"/><path class="cls-16" d="M2991.51,736.36V758.6h20.16v10.72h-20.16v41.76c0,9.6,2.72,15,10.56,15a31.32,31.32,0,0,0,8.16-1l.64,10.56a34.47,34.47,0,0,1-12.48,1.92c-6.56,0-11.84-2.08-15.2-5.92-4-4.16-5.44-11-5.44-20.16V769.32h-12V758.6h12V740Z"/><path class="cls-16" d="M3027.51,722.44h14.08v48.32h.32a26.13,26.13,0,0,1,10.08-9.92,29,29,0,0,1,14.4-4c10.4,0,27,6.4,27,33.12V836h-14.08V791.56c0-12.48-4.64-23-17.92-23-9.12,0-16.32,6.4-18.88,14.08a17,17,0,0,0-1,6.72V836h-14.08Z"/><path class="cls-16" d="M3124.15,799.88c.32,19,12.48,26.88,26.56,26.88,10.08,0,16.16-1.76,21.44-4l2.4,10.08c-5,2.24-13.44,4.8-25.76,4.8-23.84,0-38.08-15.68-38.08-39s13.76-41.76,36.32-41.76c25.28,0,32,22.24,32,36.48a53.11,53.11,0,0,1-.48,6.56Zm41.28-10.08c.16-9-3.68-22.88-19.52-22.88-14.24,0-20.48,13.12-21.6,22.88Z"/><path class="cls-16" d="M3313,831.24a100.47,100.47,0,0,1-33.12,5.92c-16.32,0-29.76-4.16-40.32-14.24-9.28-9-15-23.36-15-40.16.16-32.16,22.24-55.68,58.4-55.68,12.48,0,22.24,2.72,26.88,5l-3.36,11.36c-5.76-2.56-13-4.64-23.84-4.64-26.24,0-43.36,16.32-43.36,43.36,0,27.36,16.48,43.52,41.6,43.52,9.12,0,15.36-1.28,18.56-2.88V790.6h-21.92V779.4H3313Z"/><path class="cls-16" d="M3404.63,796.68c0,28.64-19.84,41.12-38.56,41.12-21,0-37.13-15.36-37.13-39.84,0-25.92,17-41.12,38.41-41.12C3389.59,756.84,3404.63,773,3404.63,796.68Zm-61.44.8c0,17,9.76,29.76,23.52,29.76,13.44,0,23.52-12.64,23.52-30.08,0-13.12-6.56-29.76-23.2-29.76S3343.19,782.76,3343.19,797.48Z"/><path class="cls-16" d="M3512.62,785.48H3470.7v38.88h46.72V836h-60.64V728.2H3515v11.68H3470.7V774h41.92Z"/><path class="cls-16" d="M3541.58,758.6l11,16.64c2.88,4.32,5.28,8.32,7.84,12.64h.48c2.56-4.64,5.12-8.64,7.68-12.8l10.88-16.48h15.2L3568.3,796l27.2,40h-16l-11.36-17.44c-3-4.48-5.6-8.8-8.32-13.44h-.32c-2.56,4.64-5.28,8.8-8.16,13.44L3540.14,836h-15.52l27.52-39.52L3525.9,758.6Z"/><path class="cls-16" d="M3661.9,833.16c-3.68,1.92-11.84,4.48-22.24,4.48-23.36,0-38.56-15.84-38.56-39.52,0-23.84,16.32-41.12,41.6-41.12,8.32,0,15.68,2.08,19.52,4l-3.2,10.88c-3.36-1.92-8.64-3.68-16.32-3.68-17.76,0-27.36,13.12-27.36,29.28,0,17.92,11.52,29,26.88,29a40,40,0,0,0,17.28-3.84Z"/><path class="cls-16" d="M3685.26,799.88c.32,19,12.48,26.88,26.56,26.88,10.08,0,16.16-1.76,21.44-4l2.4,10.08c-5,2.24-13.44,4.8-25.76,4.8-23.84,0-38.08-15.68-38.08-39s13.76-41.76,36.32-41.76c25.28,0,32,22.24,32,36.48a53.11,53.11,0,0,1-.48,6.56Zm41.28-10.08c.16-9-3.68-22.88-19.52-22.88-14.24,0-20.48,13.12-21.6,22.88Z"/><path class="cls-16" d="M3757.58,722.44h14.08V836h-14.08Z"/><path class="cls-16" d="M3811,736.84c.16,4.8-3.36,8.64-9,8.64a8.37,8.37,0,0,1-8.48-8.64,8.58,8.58,0,0,1,8.8-8.8C3807.66,728,3811,731.88,3811,736.84ZM3795.34,836V758.6h14.08V836Z"/><path class="cls-16" d="M3824,827.88l35-45.6c3.36-4.16,6.56-7.84,10.08-12V770h-41.92V758.6h59l-.16,8.8-34.56,45c-3.2,4.32-6.4,8.16-9.92,12.16v.32h45.28V836H3824Z"/><path class="cls-16" d="M3908,799.88c.32,19,12.48,26.88,26.56,26.88,10.08,0,16.16-1.76,21.44-4l2.4,10.08c-5,2.24-13.44,4.8-25.76,4.8-23.84,0-38.08-15.68-38.08-39s13.76-41.76,36.32-41.76c25.28,0,32,22.24,32,36.48a53.11,53.11,0,0,1-.48,6.56Zm41.28-10.08c.16-9-3.68-22.88-19.52-22.88-14.24,0-20.48,13.12-21.6,22.88Z"/><path class="cls-16" d="M4014.22,722.44h14.08V836h-14.08Z"/><path class="cls-16" d="M4067.65,736.84c.16,4.8-3.36,8.64-9,8.64a8.37,8.37,0,0,1-8.48-8.64,8.58,8.58,0,0,1,8.8-8.8C4064.29,728,4067.65,731.88,4067.65,736.84ZM4052,836V758.6h14.08V836Z"/><path class="cls-16" d="M4088.77,836c.32-5.28.64-13.12.64-20v-93.6h13.92v48.64h.32c5-8.64,13.92-14.24,26.4-14.24,19.2,0,32.81,16,32.64,39.52,0,27.68-17.44,41.44-34.72,41.44-11.2,0-20.16-4.32-25.92-14.56h-.48l-.64,12.8Zm14.56-31a26.36,26.36,0,0,0,.64,5.12c2.72,9.76,10.88,16.48,21.12,16.48,14.72,0,23.52-12,23.52-29.76,0-15.52-8-28.8-23-28.8-9.6,0-18.56,6.56-21.44,17.28a27.75,27.75,0,0,0-.8,5.76Z"/><path class="cls-16" d="M4180.45,782.76c0-9.12-.16-17-.64-24.16h12.32l.48,15.2h.64c3.52-10.4,12-17,21.44-17a15.23,15.23,0,0,1,4,.48V770.6a21.15,21.15,0,0,0-4.8-.48c-9.92,0-17,7.52-18.88,18.08a39.63,39.63,0,0,0-.64,6.56V836h-13.92Z"/><path class="cls-16" d="M4274.85,836l-1.12-9.76h-.48c-4.32,6.08-12.64,11.52-23.68,11.52-15.68,0-23.68-11-23.68-22.24,0-18.72,16.64-29,46.56-28.8v-1.6c0-6.4-1.76-17.92-17.6-17.92a38.58,38.58,0,0,0-20.16,5.76l-3.2-9.28c6.4-4.16,15.68-6.88,25.44-6.88,23.68,0,29.44,16.16,29.44,31.68v29a109,109,0,0,0,1.28,18.56Zm-2.08-39.52c-15.36-.32-32.8,2.4-32.8,17.44,0,9.12,6.08,13.44,13.28,13.44a19.27,19.27,0,0,0,18.72-13,14.7,14.7,0,0,0,.8-4.48Z"/><path class="cls-16" d="M4309.09,782.76c0-9.12-.16-17-.64-24.16h12.32l.48,15.2h.64c3.52-10.4,12-17,21.44-17a15.23,15.23,0,0,1,4,.48V770.6a21.15,21.15,0,0,0-4.8-.48c-9.92,0-17,7.52-18.88,18.08a39.63,39.63,0,0,0-.64,6.56V836h-13.92Z"/><path class="cls-16" d="M4370.53,758.6l17,45.76c1.76,5.12,3.68,11.2,5,15.84h.32c1.44-4.64,3-10.56,5-16.16l15.36-45.44H4428l-21.12,55.2c-10.08,26.56-17,40.16-26.56,48.48-6.88,6.08-13.76,8.48-17.28,9.12l-3.52-11.84a37.24,37.24,0,0,0,12.32-6.88A42.69,42.69,0,0,0,4383.65,837a10.11,10.11,0,0,0,1.12-3.36,12.28,12.28,0,0,0-1-3.68l-28.64-71.36Z"/></g></g></svg>